<svg xmlns="http://www.w3.org/2000/svg" xml:space="preserve" width="420" height="420"><defs><clipPath id="a" clipPathUnits="userSpaceOnUse"><path d="M-201.038 741.027h595.276v-841.89h-595.276Z"/></clipPath><clipPath id="b" clipPathUnits="userSpaceOnUse"><path d="M-325.037 653.206h595.276v-841.89h-595.276Z"/></clipPath><clipPath id="c" clipPathUnits="userSpaceOnUse"><path d="M-353.838 590.585h595.276v-841.89h-595.276Z"/></clipPath><clipPath id="d" clipPathUnits="userSpaceOnUse"><path d="M-213.232 488.36h595.276v-841.89h-595.276Z"/></clipPath><clipPath id="e" clipPathUnits="userSpaceOnUse"><path d="M-312.693 488.36h595.276v-841.89h-595.276Z"/></clipPath><clipPath id="f" clipPathUnits="userSpaceOnUse"><path d="M-282.527 741.027h595.276v-841.89h-595.276Z"/></clipPath><clipPath id="g" clipPathUnits="userSpaceOnUse"><path d="M-350.238 741.027h595.276v-841.89h-595.276Z"/></clipPath><clipPath id="h" clipPathUnits="userSpaceOnUse"><path d="M-201.038 598.964h595.276v-841.89h-595.276Z"/></clipPath><clipPath id="i" clipPathUnits="userSpaceOnUse"><path d="M-306.556 550.982H288.72v-841.89h-595.276Z"/></clipPath><clipPath id="j" clipPathUnits="userSpaceOnUse"><path d="M-331.673 576.975h595.276v-841.89h-595.276Z"/></clipPath></defs><g transform="matrix(.81913 0 0 .81913 -148.007 63.883)"><rect width="512.741" height="512.741" x="180.689" y="-77.99" ry="256.37" style="fill:#153149;fill-opacity:1;stroke:#000;stroke-width:0;stroke-linecap:round;stroke-opacity:0;paint-order:markers stroke fill"/><path d="M0 0v64.676c0 6.807 5.538 12.345 12.345 12.345l33.71-.16c6.806 0 12.344-5.538 12.344-12.345V43.491c0-6.818-5.526-12.345-12.343-12.345H21.6v14.401h18.788a3.6 3.6 0 0 1 3.6 3.599v9.711a3.6 3.6 0 0 1-3.6 3.601H18a3.6 3.6 0 0 1-3.601-3.601V0Z" clip-path="url(#a)" style="fill:#fff;fill-opacity:1;fill-rule:nonzero;stroke:none" transform="matrix(1.20792 0 0 -1.20792 320.375 330.982)"/><path d="M0 0h-14.399v27.709A3.6 3.6 0 0 1-18 31.31h-15.198v14.399h15.13a3.6 3.6 0 0 1 3.6 3.601l-.001 9.77a3.6 3.6 0 0 1-3.599 3.541h-18.731a3.6 3.6 0 0 1-3.599-3.6V0H-54.8v64.678c0 6.817 5.528 12.344 12.346 12.344h11.435v.002h18.674C-5.526 77.024 0 71.497 0 64.679Z" clip-path="url(#b)" style="fill:#fff;fill-opacity:1;fill-rule:nonzero;stroke:none" transform="matrix(1.20792 0 0 -1.20792 470.156 224.901)"/><path d="M0 0a3.6 3.6 0 0 1-3.6-3.601v-59.02H-18V2.058c0 6.818 5.526 12.345 12.345 12.345h33.71c6.818 0 12.344-5.527 12.344-12.344v-21.026c0-6.818-5.527-12.345-12.344-12.345H3.601v14.4h18.788a3.6 3.6 0 0 1 3.6 3.6v9.711A3.6 3.6 0 0 1 22.389 0z" clip-path="url(#c)" style="fill:#fff;fill-opacity:1;fill-rule:nonzero;stroke:none" transform="matrix(1.20792 0 0 -1.20792 504.945 149.26)"/><path d="M0 0h46.206v-14.402h-36.4a7.68 7.68 0 0 1-7.682-7.682V-54.94a7.68 7.68 0 0 1 7.682-7.683h36.4v-14.399H.15c-6.817 0-12.343 5.526-12.343 12.343v52.486C-12.193-5.459-6.734 0 0 0" clip-path="url(#d)" style="fill:#fff;fill-opacity:1;fill-rule:nonzero;stroke:none" transform="matrix(1.20792 0 0 -1.20792 335.104 25.78)"/><path d="M0 0c6.818 0 12.345-5.526 12.345-12.345v-52.344c0-6.812-5.522-12.333-12.333-12.333h-30.121c-6.819 0-12.346 5.527-12.346 12.344v52.333C-42.455-5.526-36.928 0-30.11 0Z" clip-path="url(#e)" style="fill:#fff;fill-opacity:1;fill-rule:nonzero;stroke:none" transform="matrix(1.20792 0 0 -1.20792 455.245 25.78)"/><path d="M0 0c-6.781.03-12.29 5.554-12.29 12.343v52.334c0 6.817 5.527 12.344 12.345 12.344H42.51V63.103a.484.484 0 0 0-.482-.482H5.711a3.6 3.6 0 0 1-3.6-3.6v-9.71a3.6 3.6 0 0 1 3.6-3.6h29.6V31.31h-29.6a3.6 3.6 0 0 1-3.6-3.6V18a3.6 3.6 0 0 1 3.6-3.601h36.317a.48.48 0 0 0 .482-.481V0Z" clip-path="url(#f)" style="fill:#fff;fill-opacity:1;fill-rule:nonzero;stroke:none" transform="matrix(1.20792 0 0 -1.20792 418.807 330.982)"/><path d="M0 0v58.857a3.6 3.6 0 0 0 3.6 3.601h22.388a3.6 3.6 0 0 0 3.601-3.601v-9.711a3.6 3.6 0 0 0-3.601-3.599H10.387L29.015 0h14.984L33.518 27.051a3.602 3.602 0 0 0 2.161 4.766 12.35 12.35 0 0 1 8.32 11.662v21.207c-.005 6.802-5.54 12.335-12.345 12.335h-33.71c-6.807 0-12.344-5.538-12.344-12.344V0Z" clip-path="url(#g)" style="fill:#fff;fill-opacity:1;fill-rule:nonzero;stroke:none" transform="matrix(1.20792 0 0 -1.20792 500.597 330.982)"/><path d="M0 0v10.436C0 17.242 5.538 22.78 12.344 22.78h33.711c6.806 0 12.344-5.538 12.344-12.344v-64.678h-14.4v58.82a3.8 3.8 0 0 1-7.599 0v-58.82H21.998v58.82a3.799 3.799 0 1 1-7.598 0v-58.82L0-54.243Z" clip-path="url(#h)" style="fill:#fff;fill-opacity:1;fill-rule:nonzero;stroke:none" transform="matrix(1.20792 0 0 -1.20792 320.375 159.38)"/><path d="M0 0h-17.836a4.083 4.083 0 0 0-4.082 4.082v40.057a4.08 4.08 0 0 0 4.082 4.082H0a4.08 4.08 0 0 0 4.082-4.082V4.082A4.08 4.08 0 0 0 0 0" clip-path="url(#i)" style="fill:#153149;fill-opacity:1;fill-rule:nonzero;stroke:none" transform="matrix(1.20792 0 0 -1.20792 447.832 101.423)"/><path d="M0 0a6.322 6.322 0 0 0-7.429 7.429c.471 2.484 2.475 4.487 4.959 4.958a6.32 6.32 0 0 0 7.428-7.429C4.487 2.474 2.484.471 0 0" clip-path="url(#j)" style="fill:#fff;fill-opacity:1;fill-rule:nonzero;stroke:none" transform="matrix(1.20792 0 0 -1.20792 478.171 132.82)"/></g></svg>