<svg xmlns="http://www.w3.org/2000/svg" xml:space="preserve" width="529.6" height="219.797" viewBox="0 0 140.123 58.155"><defs><clipPath id="a" clipPathUnits="userSpaceOnUse"><path d="M-223.037 262.518h595.276v-841.89h-595.276Z"/></clipPath><clipPath id="b" clipPathUnits="userSpaceOnUse"><path d="M-251.838 199.897h595.276v-841.89h-595.276Z"/></clipPath><clipPath id="c" clipPathUnits="userSpaceOnUse"><path d="M-111.231 97.671h595.276v-841.89h-595.276Z"/></clipPath><clipPath id="d" clipPathUnits="userSpaceOnUse"><path d="M-210.692 97.671h595.276v-841.89h-595.276Z"/></clipPath><clipPath id="e" clipPathUnits="userSpaceOnUse"><path d="M-99.037 208.276h595.276v-841.89H-99.037Z"/></clipPath><clipPath id="f" clipPathUnits="userSpaceOnUse"><path d="M-204.556 160.294H390.72v-841.89h-595.276Z"/></clipPath><clipPath id="g" clipPathUnits="userSpaceOnUse"><path d="M-229.673 186.288h595.276v-841.89h-595.276Z"/></clipPath><clipPath id="h" clipPathUnits="userSpaceOnUse"><path d="M-129.401 180.094h595.276v-841.89h-595.276Z"/></clipPath><clipPath id="i" clipPathUnits="userSpaceOnUse"><path d="M-128.876 178.299H466.4v-841.89h-595.276Z"/></clipPath><clipPath id="j" clipPathUnits="userSpaceOnUse"><path d="M-196.8 180.094h595.275v-841.89H-196.8Z"/></clipPath><clipPath id="k" clipPathUnits="userSpaceOnUse"><path d="M-196.275 178.299H399v-841.89h-595.276Z"/></clipPath><clipPath id="l" clipPathUnits="userSpaceOnUse"><path d="M-261.874 180.094h595.276v-841.89h-595.276Z"/></clipPath><clipPath id="m" clipPathUnits="userSpaceOnUse"><path d="M-262.4 181.89h595.277V-660H-262.4Z"/></clipPath><clipPath id="n" clipPathUnits="userSpaceOnUse"><path d="M-228.437 135.02h595.276v-841.89h-595.276Z"/></clipPath><clipPath id="o" clipPathUnits="userSpaceOnUse"><path d="M-226.643 135.546h595.276v-841.89h-595.276Z"/></clipPath><clipPath id="p" clipPathUnits="userSpaceOnUse"><path d="M-228.437 225.17h595.276v-841.89h-595.276Z"/></clipPath><clipPath id="q" clipPathUnits="userSpaceOnUse"><path d="M-230.232 224.645h595.276v-841.89h-595.276Z"/></clipPath><clipPath id="r" clipPathUnits="userSpaceOnUse"><path d="M-162.837 222.842H432.44v-841.89h-595.276Z"/></clipPath><clipPath id="s" clipPathUnits="userSpaceOnUse"><path d="M-161.042 223.368h595.276v-841.89h-595.276Z"/></clipPath><clipPath id="t" clipPathUnits="userSpaceOnUse"><path d="M-162.837 135.02H432.44v-841.89h-595.276Z"/></clipPath><clipPath id="u" clipPathUnits="userSpaceOnUse"><path d="M-161.042 135.546h595.276v-841.89h-595.276Z"/></clipPath><clipPath id="v" clipPathUnits="userSpaceOnUse"><path d="M-303.037 262.518h595.276v-841.89h-595.276Z"/></clipPath><clipPath id="w" clipPathUnits="userSpaceOnUse"><path d="M-384.526 262.518H210.75v-841.89h-595.276Z"/></clipPath><clipPath id="x" clipPathUnits="userSpaceOnUse"><path d="M-452.237 262.518h595.276v-841.89h-595.276Z"/></clipPath><clipPath id="y" clipPathUnits="userSpaceOnUse"><path d="M-402.073 208.516h595.276v-841.89h-595.276Z"/></clipPath><clipPath id="z" clipPathUnits="userSpaceOnUse"><path d="M-402.599 210.311h595.276v-841.89h-595.276Z"/></clipPath><clipPath id="A" clipPathUnits="userSpaceOnUse"><path d="M-404.4 238.567h595.276v-841.89H-404.4Z"/></clipPath><clipPath id="B" clipPathUnits="userSpaceOnUse"><path d="M-403.875 236.771h595.276v-841.89h-595.276Z"/></clipPath><clipPath id="C" clipPathUnits="userSpaceOnUse"><path d="M-432.436 225.172H162.84v-841.89h-595.276Z"/></clipPath><clipPath id="D" clipPathUnits="userSpaceOnUse"><path d="M-434.231 224.646h595.276v-841.89h-595.276Z"/></clipPath><clipPath id="E" clipPathUnits="userSpaceOnUse"><path d="M-366.837 222.844H228.44v-841.89h-595.276Z"/></clipPath><clipPath id="F" clipPathUnits="userSpaceOnUse"><path d="M-365.042 223.37h595.276v-841.89h-595.276Z"/></clipPath><clipPath id="G" clipPathUnits="userSpaceOnUse"><path d="M-297.637 222.844H297.64v-841.89h-595.276Z"/></clipPath><clipPath id="H" clipPathUnits="userSpaceOnUse"><path d="M-295.842 223.37h595.276v-841.89h-595.276Z"/></clipPath></defs><path d="M0 0h-14.399v27.71c0 1.988-1.613 3.6-3.601 3.6h-15.199v14.399h15.131a3.6 3.6 0 0 1 3.599 3.601v9.771a3.6 3.6 0 0 1-3.599 3.54h-18.731a3.6 3.6 0 0 1-3.599-3.6V0H-54.8v64.678c0 6.818 5.528 12.345 12.346 12.345h11.434v.001h18.675C-5.527 77.024 0 71.497 0 64.679Z" clip-path="url(#a)" style="fill:#fff;fill-opacity:1;fill-rule:nonzero;stroke:none" transform="matrix(.35278 0 0 -.35278 43.744 58.154)"/><path d="M0 0a3.6 3.6 0 0 1-3.6-3.6v-59.021h-14.401V2.058c0 6.818 5.527 12.345 12.346 12.345h33.71c6.817 0 12.344-5.527 12.344-12.344v-21.026c0-6.818-5.527-12.345-12.344-12.345H3.601v14.401h18.788a3.6 3.6 0 0 1 3.599 3.599V-3.6A3.6 3.6 0 0 1 22.389 0z" clip-path="url(#b)" style="fill:#fff;fill-opacity:1;fill-rule:nonzero;stroke:none" transform="matrix(.35278 0 0 -.35278 53.905 36.063)"/><path d="M0 0h46.206v-14.402h-36.4a7.68 7.68 0 0 1-7.682-7.682v-32.857a7.68 7.68 0 0 1 7.682-7.682h36.4v-14.4H.15c-6.817 0-12.343 5.527-12.343 12.344l-.001 11.361v41.125C-12.194-5.459-6.734 0 0 0" clip-path="url(#c)" style="fill:#fff;fill-opacity:1;fill-rule:nonzero;stroke:none" transform="matrix(.35278 0 0 -.35278 4.302 0)"/><path d="M0 0c6.817 0 12.345-5.527 12.345-12.345v-52.344c0-6.812-5.522-12.334-12.333-12.334h-30.121c-6.819 0-12.346 5.527-12.346 12.345v52.333C-42.455-5.527-36.928 0-30.11 0Z" clip-path="url(#d)" style="fill:#fff;fill-opacity:1;fill-rule:nonzero;stroke:none" transform="matrix(.35278 0 0 -.35278 39.39 0)"/><path d="M0 0h.001v10.435c0 6.807 5.537 12.345 12.344 12.345h33.711c6.806 0 12.344-5.538 12.344-12.345v-64.678H44V4.578a3.8 3.8 0 0 1-7.599 0v-58.821H21.999V4.578a3.8 3.8 0 0 1-7.599 0v-58.821H0Z" clip-path="url(#e)" style="fill:#fff;fill-opacity:1;fill-rule:nonzero;stroke:none" transform="matrix(.35278 0 0 -.35278 0 39.019)"/><path d="M0 0h-17.836a4.083 4.083 0 0 0-4.082 4.082v40.057a4.083 4.083 0 0 0 4.082 4.082H0a4.083 4.083 0 0 0 4.082-4.082V4.082A4.083 4.083 0 0 0 0 0" clip-path="url(#f)" style="fill:#153149;fill-opacity:1;fill-rule:nonzero;stroke:none" transform="matrix(.35278 0 0 -.35278 37.225 22.092)"/><path d="M0 0a6.322 6.322 0 0 0-7.429 7.429c.471 2.485 2.474 4.488 4.958 4.959a6.322 6.322 0 0 0 7.429-7.43C4.487 2.474 2.483.471 0 0" clip-path="url(#g)" style="fill:#fff;fill-opacity:1;fill-rule:nonzero;stroke:none" transform="matrix(.35278 0 0 -.35278 46.085 31.262)"/><path d="M0 0h-4.911" clip-path="url(#h)" style="fill:#fff;stroke:#252728;stroke-width:.9;stroke-linecap:butt;stroke-linejoin:miter;stroke-miterlimit:10;stroke-dasharray:none;stroke-opacity:1" transform="matrix(.35278 0 0 -.35278 10.712 29.077)"/><path d="m0 0 3.108-1.795L0-3.59Z" clip-path="url(#i)" style="fill:#fff;fill-opacity:1;fill-rule:nonzero;stroke:none" transform="matrix(.35278 0 0 -.35278 10.527 28.444)"/><path d="M0 0h-4.911" clip-path="url(#j)" style="fill:#fff;stroke:#252728;stroke-width:.9;stroke-linecap:butt;stroke-linejoin:miter;stroke-miterlimit:10;stroke-dasharray:none;stroke-opacity:1" transform="matrix(.35278 0 0 -.35278 34.489 29.077)"/><path d="m0 0 3.109-1.795L0-3.59Z" clip-path="url(#k)" style="fill:#fff;fill-opacity:1;fill-rule:nonzero;stroke:none" transform="matrix(.35278 0 0 -.35278 34.304 28.444)"/><path d="M0 0h4.91" clip-path="url(#l)" style="fill:#fff;stroke:#252728;stroke-width:.9;stroke-linecap:butt;stroke-linejoin:miter;stroke-miterlimit:10;stroke-dasharray:none;stroke-opacity:1" transform="matrix(.35278 0 0 -.35278 57.445 29.077)"/><path d="m0 0-3.109 1.795L0 3.59Z" clip-path="url(#m)" style="fill:#fff;fill-opacity:1;fill-rule:nonzero;stroke:none" transform="matrix(.35278 0 0 -.35278 57.63 29.71)"/><path d="M0 0v-4.911" clip-path="url(#n)" style="fill:#fff;stroke:#252728;stroke-width:.9;stroke-linecap:butt;stroke-linejoin:miter;stroke-miterlimit:10;stroke-dasharray:none;stroke-opacity:1" transform="matrix(.35278 0 0 -.35278 45.65 13.176)"/><path d="m0 0 1.795 3.109L3.59 0Z" clip-path="url(#o)" style="fill:#fff;fill-opacity:1;fill-rule:nonzero;stroke:none" transform="matrix(.35278 0 0 -.35278 45.016 13.361)"/><path d="M0 0v4.911" clip-path="url(#p)" style="fill:#fff;stroke:#252728;stroke-width:.9;stroke-linecap:butt;stroke-linejoin:miter;stroke-miterlimit:10;stroke-dasharray:none;stroke-opacity:1" transform="matrix(.35278 0 0 -.35278 45.65 44.979)"/><path d="m0 0-1.795-3.108L-3.59 0Z" clip-path="url(#q)" style="fill:#fff;fill-opacity:1;fill-rule:nonzero;stroke:none" transform="matrix(.35278 0 0 -.35278 46.283 44.793)"/><path d="M0 0v-4.911" clip-path="url(#r)" style="fill:#fff;stroke:#252728;stroke-width:.9;stroke-linecap:butt;stroke-linejoin:miter;stroke-miterlimit:10;stroke-dasharray:none;stroke-opacity:1" transform="matrix(.35278 0 0 -.35278 22.507 44.158)"/><path d="m0 0 1.795 3.109L3.591 0Z" clip-path="url(#s)" style="fill:#fff;fill-opacity:1;fill-rule:nonzero;stroke:none" transform="matrix(.35278 0 0 -.35278 21.874 44.343)"/><path d="M0 0v-4.911" clip-path="url(#t)" style="fill:#fff;stroke:#252728;stroke-width:.9;stroke-linecap:butt;stroke-linejoin:miter;stroke-miterlimit:10;stroke-dasharray:none;stroke-opacity:1" transform="matrix(.35278 0 0 -.35278 22.507 13.176)"/><path d="m0 0 1.795 3.109L3.591 0Z" clip-path="url(#u)" style="fill:#fff;fill-opacity:1;fill-rule:nonzero;stroke:none" transform="matrix(.35278 0 0 -.35278 21.874 13.361)"/><path d="M0 0v64.676c0 6.807 5.538 12.345 12.345 12.345l33.71-.16c6.806 0 12.344-5.538 12.344-12.345V43.491c0-6.818-5.526-12.345-12.343-12.345H21.6v14.4h18.789a3.6 3.6 0 0 1 3.599 3.6v9.711a3.6 3.6 0 0 1-3.599 3.601H18a3.6 3.6 0 0 1-3.6-3.601V0Z" clip-path="url(#v)" style="fill:#fff;fill-opacity:1;fill-rule:nonzero;stroke:none" transform="matrix(.35278 0 0 -.35278 71.967 58.154)"/><path d="M0 0c-6.781.03-12.289 5.554-12.289 12.342v52.335c0 6.817 5.526 12.344 12.344 12.344h42.456V63.103a.484.484 0 0 0-.483-.482H5.711a3.6 3.6 0 0 1-3.6-3.6v-9.71a3.6 3.6 0 0 1 3.6-3.6h29.6V31.31h-29.6a3.6 3.6 0 0 1-3.6-3.6V18a3.6 3.6 0 0 1 3.6-3.6h36.317a.484.484 0 0 0 .483-.482V0Z" clip-path="url(#w)" style="fill:#fff;fill-opacity:1;fill-rule:nonzero;stroke:none" transform="matrix(.35278 0 0 -.35278 100.714 58.154)"/><path d="M0 0v58.857a3.6 3.6 0 0 0 3.601 3.601h22.387a3.6 3.6 0 0 0 3.601-3.601v-9.711a3.6 3.6 0 0 0-3.601-3.6H10.387L29.015 0h14.984l-10.48 27.051a3.596 3.596 0 0 0 2.16 4.766A12.35 12.35 0 0 1 44 43.479v21.207c-.006 6.802-5.541 12.335-12.345 12.335H-2.056c-6.806 0-12.344-5.538-12.344-12.344V0Z" clip-path="url(#x)" style="fill:#fff;fill-opacity:1;fill-rule:nonzero;stroke:none" transform="matrix(.35278 0 0 -.35278 124.601 58.154)"/><path d="M0 0h4.91" clip-path="url(#y)" style="fill:#fff;stroke:#252728;stroke-width:.9;stroke-linecap:butt;stroke-linejoin:miter;stroke-miterlimit:10;stroke-dasharray:none;stroke-opacity:1" transform="matrix(.35278 0 0 -.35278 106.904 39.104)"/><path d="m0 0-3.109 1.795L0 3.59Z" clip-path="url(#z)" style="fill:#fff;fill-opacity:1;fill-rule:nonzero;stroke:none" transform="matrix(.35278 0 0 -.35278 107.09 39.737)"/><path d="M0 0h-4.911" clip-path="url(#A)" style="fill:#fff;stroke:#252728;stroke-width:.9;stroke-linecap:butt;stroke-linejoin:miter;stroke-miterlimit:10;stroke-dasharray:none;stroke-opacity:1" transform="matrix(.35278 0 0 -.35278 107.725 49.705)"/><path d="m0 0 3.108-1.795L0-3.59Z" clip-path="url(#B)" style="fill:#fff;fill-opacity:1;fill-rule:nonzero;stroke:none" transform="matrix(.35278 0 0 -.35278 107.54 49.071)"/><path d="M0 0v4.911" clip-path="url(#C)" style="fill:#fff;stroke:#252728;stroke-width:.9;stroke-linecap:butt;stroke-linejoin:miter;stroke-miterlimit:10;stroke-dasharray:none;stroke-opacity:1" transform="matrix(.35278 0 0 -.35278 117.616 44.98)"/><path d="m0 0-1.795-3.108L-3.59 0Z" clip-path="url(#D)" style="fill:#fff;fill-opacity:1;fill-rule:nonzero;stroke:none" transform="matrix(.35278 0 0 -.35278 118.25 44.794)"/><path d="M0 0v-4.911" clip-path="url(#E)" style="fill:#fff;stroke:#252728;stroke-width:.9;stroke-linecap:butt;stroke-linejoin:miter;stroke-miterlimit:10;stroke-dasharray:none;stroke-opacity:1" transform="matrix(.35278 0 0 -.35278 94.474 44.158)"/><path d="m0 0 1.795 3.109L3.59 0Z" clip-path="url(#F)" style="fill:#fff;fill-opacity:1;fill-rule:nonzero;stroke:none" transform="matrix(.35278 0 0 -.35278 93.84 44.344)"/><path d="M0 0v-4.911" clip-path="url(#G)" style="fill:#fff;stroke:#252728;stroke-width:.9;stroke-linecap:butt;stroke-linejoin:miter;stroke-miterlimit:10;stroke-dasharray:none;stroke-opacity:1" transform="matrix(.35278 0 0 -.35278 70.062 44.158)"/><path d="m0 0 1.795 3.109L3.591 0Z" clip-path="url(#H)" style="fill:#fff;fill-opacity:1;fill-rule:nonzero;stroke:none" transform="matrix(.35278 0 0 -.35278 69.428 44.344)"/></svg>