<?xml version="1.0" encoding="UTF-8" standalone="no"?>
<!-- Created with Inkscape (http://www.inkscape.org/) -->

<svg
   width="140.12341mm"
   height="58.154537mm"
   viewBox="0 0 140.12341 58.154537"
   version="1.1"
   id="svg1"
   xml:space="preserve"
   xmlns="http://www.w3.org/2000/svg"
   xmlns:svg="http://www.w3.org/2000/svg"><defs
     id="defs1"><clipPath
       clipPathUnits="userSpaceOnUse"
       id="clipPath369"><path
         d="M 0,841.89 H 595.276 V 0 H 0 Z"
         transform="translate(-223.03698,-579.37181)"
         id="path369" /></clipPath><clipPath
       clipPathUnits="userSpaceOnUse"
       id="clipPath371"><path
         d="M 0,841.89 H 595.276 V 0 H 0 Z"
         transform="translate(-251.83781,-641.99291)"
         id="path371" /></clipPath><clipPath
       clipPathUnits="userSpaceOnUse"
       id="clipPath373"><path
         d="M 0,841.89 H 595.276 V 0 H 0 Z"
         transform="translate(-111.2314,-744.21892)"
         id="path373" /></clipPath><clipPath
       clipPathUnits="userSpaceOnUse"
       id="clipPath375"><path
         d="M 0,841.89 H 595.276 V 0 H 0 Z"
         transform="translate(-210.69228,-744.21892)"
         id="path375" /></clipPath><clipPath
       clipPathUnits="userSpaceOnUse"
       id="clipPath377"><path
         d="M 0,841.89 H 595.276 V 0 H 0 Z"
         transform="translate(-99.037002,-633.61442)"
         id="path377" /></clipPath><clipPath
       clipPathUnits="userSpaceOnUse"
       id="clipPath379"><path
         d="M 0,841.89 H 595.276 V 0 H 0 Z"
         transform="translate(-204.55563,-681.59591)"
         id="path379" /></clipPath><clipPath
       clipPathUnits="userSpaceOnUse"
       id="clipPath381"><path
         d="M 0,841.89 H 595.276 V 0 H 0 Z"
         transform="translate(-229.67268,-655.60222)"
         id="path381" /></clipPath><clipPath
       clipPathUnits="userSpaceOnUse"
       id="clipPath383"><path
         d="M 0,841.89 H 595.276 V 0 H 0 Z"
         transform="translate(-129.40128,-661.79612)"
         id="path383" /></clipPath><clipPath
       clipPathUnits="userSpaceOnUse"
       id="clipPath385"><path
         d="M 0,841.89 H 595.276 V 0 H 0 Z"
         transform="translate(-128.8759,-663.59102)"
         id="path385" /></clipPath><clipPath
       clipPathUnits="userSpaceOnUse"
       id="clipPath387"><path
         d="M 0,841.89 H 595.276 V 0 H 0 Z"
         transform="translate(-196.8007,-661.79612)"
         id="path387" /></clipPath><clipPath
       clipPathUnits="userSpaceOnUse"
       id="clipPath389"><path
         d="M 0,841.89 H 595.276 V 0 H 0 Z"
         transform="translate(-196.27533,-663.59102)"
         id="path389" /></clipPath><clipPath
       clipPathUnits="userSpaceOnUse"
       id="clipPath391"><path
         d="M 0,841.89 H 595.276 V 0 H 0 Z"
         transform="translate(-261.87393,-661.79612)"
         id="path391" /></clipPath><clipPath
       clipPathUnits="userSpaceOnUse"
       id="clipPath393"><path
         d="M 0,841.89 H 595.276 V 0 H 0 Z"
         transform="translate(-262.39931,-660.00071)"
         id="path393" /></clipPath><clipPath
       clipPathUnits="userSpaceOnUse"
       id="clipPath395"><path
         d="M 0,841.89 H 595.276 V 0 H 0 Z"
         transform="translate(-228.43743,-706.86982)"
         id="path395" /></clipPath><clipPath
       clipPathUnits="userSpaceOnUse"
       id="clipPath397"><path
         d="M 0,841.89 H 595.276 V 0 H 0 Z"
         transform="translate(-226.64253,-706.34442)"
         id="path397" /></clipPath><clipPath
       clipPathUnits="userSpaceOnUse"
       id="clipPath399"><path
         d="M 0,841.89 H 595.276 V 0 H 0 Z"
         transform="translate(-228.43743,-616.72042)"
         id="path399" /></clipPath><clipPath
       clipPathUnits="userSpaceOnUse"
       id="clipPath401"><path
         d="M 0,841.89 H 595.276 V 0 H 0 Z"
         transform="translate(-230.23233,-617.24531)"
         id="path401" /></clipPath><clipPath
       clipPathUnits="userSpaceOnUse"
       id="clipPath403"><path
         d="M 0,841.89 H 595.276 V 0 H 0 Z"
         transform="translate(-162.8368,-619.04752)"
         id="path403" /></clipPath><clipPath
       clipPathUnits="userSpaceOnUse"
       id="clipPath405"><path
         d="M 0,841.89 H 595.276 V 0 H 0 Z"
         transform="translate(-161.0419,-618.52222)"
         id="path405" /></clipPath><clipPath
       clipPathUnits="userSpaceOnUse"
       id="clipPath407"><path
         d="M 0,841.89 H 595.276 V 0 H 0 Z"
         transform="translate(-162.8368,-706.86982)"
         id="path407" /></clipPath><clipPath
       clipPathUnits="userSpaceOnUse"
       id="clipPath409"><path
         d="M 0,841.89 H 595.276 V 0 H 0 Z"
         transform="translate(-161.0419,-706.34442)"
         id="path409" /></clipPath><clipPath
       clipPathUnits="userSpaceOnUse"
       id="clipPath411"><path
         d="M 0,841.89 H 595.276 V 0 H 0 Z"
         transform="translate(-303.03701,-579.37181)"
         id="path411" /></clipPath><clipPath
       clipPathUnits="userSpaceOnUse"
       id="clipPath413"><path
         d="M 0,841.89 H 595.276 V 0 H 0 Z"
         transform="translate(-384.52631,-579.37181)"
         id="path413" /></clipPath><clipPath
       clipPathUnits="userSpaceOnUse"
       id="clipPath415"><path
         d="M 0,841.89 H 595.276 V 0 H 0 Z"
         transform="translate(-452.23721,-579.37181)"
         id="path415" /></clipPath><clipPath
       clipPathUnits="userSpaceOnUse"
       id="clipPath417"><path
         d="M 0,841.89 H 595.276 V 0 H 0 Z"
         transform="translate(-402.07324,-633.37372)"
         id="path417" /></clipPath><clipPath
       clipPathUnits="userSpaceOnUse"
       id="clipPath419"><path
         d="M 0,841.89 H 595.276 V 0 H 0 Z"
         transform="translate(-402.59854,-631.57882)"
         id="path419" /></clipPath><clipPath
       clipPathUnits="userSpaceOnUse"
       id="clipPath421"><path
         d="M 0,841.89 H 595.276 V 0 H 0 Z"
         transform="translate(-404.40034,-603.32342)"
         id="path421" /></clipPath><clipPath
       clipPathUnits="userSpaceOnUse"
       id="clipPath423"><path
         d="M 0,841.89 H 595.276 V 0 H 0 Z"
         transform="translate(-403.87489,-605.11882)"
         id="path423" /></clipPath><clipPath
       clipPathUnits="userSpaceOnUse"
       id="clipPath425"><path
         d="M 0,841.89 H 595.276 V 0 H 0 Z"
         transform="translate(-432.43639,-616.71842)"
         id="path425" /></clipPath><clipPath
       clipPathUnits="userSpaceOnUse"
       id="clipPath427"><path
         d="M 0,841.89 H 595.276 V 0 H 0 Z"
         transform="translate(-434.23144,-617.24381)"
         id="path427" /></clipPath><clipPath
       clipPathUnits="userSpaceOnUse"
       id="clipPath429"><path
         d="M 0,841.89 H 595.276 V 0 H 0 Z"
         transform="translate(-366.83681,-619.04612)"
         id="path429" /></clipPath><clipPath
       clipPathUnits="userSpaceOnUse"
       id="clipPath431"><path
         d="M 0,841.89 H 595.276 V 0 H 0 Z"
         transform="translate(-365.04191,-618.52072)"
         id="path431" /></clipPath><clipPath
       clipPathUnits="userSpaceOnUse"
       id="clipPath433"><path
         d="M 0,841.89 H 595.276 V 0 H 0 Z"
         transform="translate(-297.63663,-619.04612)"
         id="path433" /></clipPath><clipPath
       clipPathUnits="userSpaceOnUse"
       id="clipPath435"><path
         d="M 0,841.89 H 595.276 V 0 H 0 Z"
         transform="translate(-295.84173,-618.52072)"
         id="path435" /></clipPath></defs><g
     id="g367"
     transform="matrix(0.26458333,0,0,0.26458335,-465.52166,-34.456196)"><path
       id="path368"
       d="m 0,0 h -14.399 v 27.71 c 0,1.988 -1.613,3.6 -3.601,3.6 h -15.199 v 14.399 h 15.131 c 1.988,0 3.599,1.613 3.599,3.601 v 9.771 c -0.032,1.96 -1.632,3.54 -3.599,3.54 h -18.731 c -1.988,0 -3.599,-1.612 -3.599,-3.6 V 0 H -54.8 v 64.678 c 0,6.818 5.528,12.345 12.346,12.345 h 11.434 v 0.001 h 18.675 C -5.527,77.024 0,71.497 0,64.679 Z"
       style="fill:#ffffff;fill-opacity:1;fill-rule:nonzero;stroke:none"
       transform="matrix(1.3333333,0,0,-1.3333333,1924.7853,350.02427)"
       clip-path="url(#clipPath369)" /><path
       id="path370"
       d="M 0,0 C -1.988,0 -3.6,-1.612 -3.6,-3.6 V -62.621 H -18.001 V 2.058 c 0,6.818 5.527,12.345 12.346,12.345 h 33.71 c 6.817,0 12.344,-5.527 12.344,-12.344 v -21.026 c 0,-6.818 -5.527,-12.345 -12.344,-12.345 H 3.601 v 14.401 h 18.788 c 1.988,0 3.599,1.611 3.599,3.599 V -3.6 c 0,1.988 -1.611,3.6 -3.599,3.6 z"
       style="fill:#ffffff;fill-opacity:1;fill-rule:nonzero;stroke:none"
       transform="matrix(1.3333333,0,0,-1.3333333,1963.1864,266.52947)"
       clip-path="url(#clipPath371)" /><path
       id="path372"
       d="m 0,0 h 46.206 v -14.402 h -36.4 c -4.244,0 -7.682,-3.44 -7.682,-7.682 v -32.857 c 0,-4.243 3.438,-7.682 7.682,-7.682 h 36.4 v -14.4 H 0.15 c -6.817,0 -12.343,5.527 -12.343,12.344 l -0.001,11.361 v 41.125 C -12.194,-5.459 -6.734,0 0,0"
       style="fill:#ffffff;fill-opacity:1;fill-rule:nonzero;stroke:none"
       transform="matrix(1.3333333,0,0,-1.3333333,1775.7112,130.22813)"
       clip-path="url(#clipPath373)" /><path
       id="path374"
       d="m 0,0 c 6.817,0 12.345,-5.527 12.345,-12.345 v -52.344 c 0,-6.812 -5.522,-12.334 -12.333,-12.334 h -30.121 c -6.819,0 -12.346,5.527 -12.346,12.345 v 52.333 C -42.455,-5.527 -36.928,0 -30.11,0 Z"
       style="fill:#ffffff;fill-opacity:1;fill-rule:nonzero;stroke:none"
       transform="matrix(1.3333333,0,0,-1.3333333,1908.3257,130.22813)"
       clip-path="url(#clipPath375)" /><path
       id="path376"
       d="m 0,0 h 0.001 v 10.435 c 0,6.807 5.537,12.345 12.344,12.345 H 46.056 C 52.862,22.78 58.4,17.242 58.4,10.435 V -54.243 H 44 V 4.578 c 0,2.098 -1.701,3.799 -3.8,3.799 -2.097,0 -3.799,-1.701 -3.799,-3.799 V -54.243 H 21.999 V 4.578 c 0,2.098 -1.701,3.799 -3.799,3.799 -2.098,0 -3.8,-1.701 -3.8,-3.799 V -54.243 H 0 Z"
       style="fill:#ffffff;fill-opacity:1;fill-rule:nonzero;stroke:none"
       transform="matrix(1.3333333,0,0,-1.3333333,1759.452,277.7008)"
       clip-path="url(#clipPath377)" /><path
       id="path378"
       d="m 0,0 h -17.836 c -2.254,0 -4.082,1.828 -4.082,4.082 v 40.057 c 0,2.254 1.828,4.082 4.082,4.082 H 0 c 2.254,0 4.082,-1.828 4.082,-4.082 V 4.082 C 4.082,1.828 2.254,0 0,0"
       style="fill:#153149;fill-opacity:1;fill-rule:nonzero;stroke:none"
       transform="matrix(1.3333333,0,0,-1.3333333,1900.1435,213.72547)"
       clip-path="url(#clipPath379)" /><path
       id="path380"
       d="m 0,0 c -4.446,-0.843 -8.272,2.983 -7.429,7.429 0.471,2.485 2.474,4.488 4.958,4.959 C 1.976,13.23 5.801,9.404 4.958,4.958 4.487,2.474 2.483,0.471 0,0"
       style="fill:#ffffff;fill-opacity:1;fill-rule:nonzero;stroke:none"
       transform="matrix(1.3333333,0,0,-1.3333333,1933.6329,248.38373)"
       clip-path="url(#clipPath381)" /><path
       id="path382"
       d="M 0,0 H -4.911"
       style="fill:#ffffff;stroke:#252728;stroke-width:0.9;stroke-linecap:butt;stroke-linejoin:miter;stroke-miterlimit:10;stroke-dasharray:none;stroke-opacity:1"
       transform="matrix(1.3333333,0,0,-1.3333333,1799.9377,240.1252)"
       clip-path="url(#clipPath383)" /><path
       id="path384"
       d="M 0,0 3.108,-1.795 0,-3.59 Z"
       style="fill:#ffffff;fill-opacity:1;fill-rule:nonzero;stroke:none"
       transform="matrix(1.3333333,0,0,-1.3333333,1799.2372,237.732)"
       clip-path="url(#clipPath385)" /><path
       id="path386"
       d="M 0,0 H -4.911"
       style="fill:#ffffff;stroke:#252728;stroke-width:0.9;stroke-linecap:butt;stroke-linejoin:miter;stroke-miterlimit:10;stroke-dasharray:none;stroke-opacity:1"
       transform="matrix(1.3333333,0,0,-1.3333333,1889.8036,240.1252)"
       clip-path="url(#clipPath387)" /><path
       id="path388"
       d="M 0,0 3.109,-1.795 0,-3.59 Z"
       style="fill:#ffffff;fill-opacity:1;fill-rule:nonzero;stroke:none"
       transform="matrix(1.3333333,0,0,-1.3333333,1889.1031,237.732)"
       clip-path="url(#clipPath389)" /><path
       id="path390"
       d="M 0,0 H 4.91"
       style="fill:#ffffff;stroke:#252728;stroke-width:0.9;stroke-linecap:butt;stroke-linejoin:miter;stroke-miterlimit:10;stroke-dasharray:none;stroke-opacity:1"
       transform="matrix(1.3333333,0,0,-1.3333333,1976.5679,240.1252)"
       clip-path="url(#clipPath391)" /><path
       id="path392"
       d="M 0,0 -3.109,1.795 0,3.59 Z"
       style="fill:#ffffff;fill-opacity:1;fill-rule:nonzero;stroke:none"
       transform="matrix(1.3333333,0,0,-1.3333333,1977.2684,242.51907)"
       clip-path="url(#clipPath393)" /><path
       id="path394"
       d="M 0,0 V -4.911"
       style="fill:#ffffff;stroke:#252728;stroke-width:0.9;stroke-linecap:butt;stroke-linejoin:miter;stroke-miterlimit:10;stroke-dasharray:none;stroke-opacity:1"
       transform="matrix(1.3333333,0,0,-1.3333333,1931.9859,180.02693)"
       clip-path="url(#clipPath395)" /><path
       id="path396"
       d="M 0,0 1.795,3.109 3.59,0 Z"
       style="fill:#ffffff;fill-opacity:1;fill-rule:nonzero;stroke:none"
       transform="matrix(1.3333333,0,0,-1.3333333,1929.5927,180.72747)"
       clip-path="url(#clipPath397)" /><path
       id="path398"
       d="M 0,0 V 4.911"
       style="fill:#ffffff;stroke:#252728;stroke-width:0.9;stroke-linecap:butt;stroke-linejoin:miter;stroke-miterlimit:10;stroke-dasharray:none;stroke-opacity:1"
       transform="matrix(1.3333333,0,0,-1.3333333,1931.9859,300.22613)"
       clip-path="url(#clipPath399)" /><path
       id="path400"
       d="M 0,0 -1.795,-3.108 -3.59,0 Z"
       style="fill:#ffffff;fill-opacity:1;fill-rule:nonzero;stroke:none"
       transform="matrix(1.3333333,0,0,-1.3333333,1934.3791,299.52627)"
       clip-path="url(#clipPath401)" /><path
       id="path402"
       d="M 0,0 V -4.911"
       style="fill:#ffffff;stroke:#252728;stroke-width:0.9;stroke-linecap:butt;stroke-linejoin:miter;stroke-miterlimit:10;stroke-dasharray:none;stroke-opacity:1"
       transform="matrix(1.3333333,0,0,-1.3333333,1844.5184,297.12333)"
       clip-path="url(#clipPath403)" /><path
       id="path404"
       d="M 0,0 1.795,3.109 3.591,0 Z"
       style="fill:#ffffff;fill-opacity:1;fill-rule:nonzero;stroke:none"
       transform="matrix(1.3333333,0,0,-1.3333333,1842.1252,297.82373)"
       clip-path="url(#clipPath405)" /><path
       id="path406"
       d="M 0,0 V -4.911"
       style="fill:#ffffff;stroke:#252728;stroke-width:0.9;stroke-linecap:butt;stroke-linejoin:miter;stroke-miterlimit:10;stroke-dasharray:none;stroke-opacity:1"
       transform="matrix(1.3333333,0,0,-1.3333333,1844.5184,180.02693)"
       clip-path="url(#clipPath407)" /><path
       id="path408"
       d="M 0,0 1.795,3.109 3.591,0 Z"
       style="fill:#ffffff;fill-opacity:1;fill-rule:nonzero;stroke:none"
       transform="matrix(1.3333333,0,0,-1.3333333,1842.1252,180.72747)"
       clip-path="url(#clipPath409)" /><path
       id="path410"
       d="m 0,0 v 64.676 c 0,6.807 5.538,12.345 12.345,12.345 l 33.71,-0.16 c 6.806,0 12.344,-5.538 12.344,-12.345 V 43.491 c 0,-6.818 -5.526,-12.345 -12.343,-12.345 H 21.6 v 14.4 h 18.789 c 1.988,0 3.599,1.612 3.599,3.6 v 9.711 c 0,1.989 -1.611,3.601 -3.599,3.601 H 18 c -1.988,0 -3.6,-1.612 -3.6,-3.601 V 0 Z"
       style="fill:#ffffff;fill-opacity:1;fill-rule:nonzero;stroke:none"
       transform="matrix(1.3333333,0,0,-1.3333333,2031.452,350.02427)"
       clip-path="url(#clipPath411)" /><path
       id="path412"
       d="m 0,0 c -6.781,0.03 -12.289,5.554 -12.289,12.342 v 52.335 c 0,6.817 5.526,12.344 12.344,12.344 H 42.511 V 63.103 c 0,-0.265 -0.217,-0.482 -0.483,-0.482 H 5.711 c -1.988,0 -3.6,-1.612 -3.6,-3.6 v -9.71 c 0,-1.988 1.612,-3.6 3.6,-3.6 h 29.6 V 31.31 h -29.6 c -1.988,0 -3.6,-1.612 -3.6,-3.6 V 18 c 0,-1.988 1.612,-3.6 3.6,-3.6 h 36.317 c 0.266,0 0.483,-0.217 0.483,-0.482 V 0 Z"
       style="fill:#ffffff;fill-opacity:1;fill-rule:nonzero;stroke:none"
       transform="matrix(1.3333333,0,0,-1.3333333,2140.1044,350.02427)"
       clip-path="url(#clipPath413)" /><path
       id="path414"
       d="m 0,0 v 58.857 c 0,1.989 1.612,3.601 3.601,3.601 h 22.387 c 1.989,0 3.601,-1.612 3.601,-3.601 v -9.711 c 0,-1.988 -1.612,-3.6 -3.601,-3.6 H 10.387 L 29.015,0 h 14.984 l -10.48,27.051 c -0.375,0.916 -0.356,1.947 0.053,2.848 0.408,0.902 1.17,1.596 2.107,1.918 4.972,1.713 8.315,6.398 8.321,11.662 V 64.686 C 43.994,71.488 38.459,77.021 31.655,77.021 H -2.056 C -8.862,77.021 -14.4,71.483 -14.4,64.677 V 0 Z"
       style="fill:#ffffff;fill-opacity:1;fill-rule:nonzero;stroke:none"
       transform="matrix(1.3333333,0,0,-1.3333333,2230.3856,350.02427)"
       clip-path="url(#clipPath415)" /><path
       id="path416"
       d="M 0,0 H 4.91"
       style="fill:#ffffff;stroke:#252728;stroke-width:0.9;stroke-linecap:butt;stroke-linejoin:miter;stroke-miterlimit:10;stroke-dasharray:none;stroke-opacity:1"
       transform="matrix(1.3333333,0,0,-1.3333333,2163.5003,278.02173)"
       clip-path="url(#clipPath417)" /><path
       id="path418"
       d="M 0,0 -3.109,1.795 0,3.59 Z"
       style="fill:#ffffff;fill-opacity:1;fill-rule:nonzero;stroke:none"
       transform="matrix(1.3333333,0,0,-1.3333333,2164.2007,280.41493)"
       clip-path="url(#clipPath419)" /><path
       id="path420"
       d="M 0,0 H -4.911"
       style="fill:#ffffff;stroke:#252728;stroke-width:0.9;stroke-linecap:butt;stroke-linejoin:miter;stroke-miterlimit:10;stroke-dasharray:none;stroke-opacity:1"
       transform="matrix(1.3333333,0,0,-1.3333333,2166.6031,318.0888)"
       clip-path="url(#clipPath421)" /><path
       id="path422"
       d="M 0,0 3.108,-1.795 0,-3.59 Z"
       style="fill:#ffffff;fill-opacity:1;fill-rule:nonzero;stroke:none"
       transform="matrix(1.3333333,0,0,-1.3333333,2165.9025,315.69493)"
       clip-path="url(#clipPath423)" /><path
       id="path424"
       d="M 0,0 V 4.911"
       style="fill:#ffffff;stroke:#252728;stroke-width:0.9;stroke-linecap:butt;stroke-linejoin:miter;stroke-miterlimit:10;stroke-dasharray:none;stroke-opacity:1"
       transform="matrix(1.3333333,0,0,-1.3333333,2203.9845,300.2288)"
       clip-path="url(#clipPath425)" /><path
       id="path426"
       d="M 0,0 -1.795,-3.108 -3.59,0 Z"
       style="fill:#ffffff;fill-opacity:1;fill-rule:nonzero;stroke:none"
       transform="matrix(1.3333333,0,0,-1.3333333,2206.3779,299.52827)"
       clip-path="url(#clipPath427)" /><path
       id="path428"
       d="M 0,0 V -4.911"
       style="fill:#ffffff;stroke:#252728;stroke-width:0.9;stroke-linecap:butt;stroke-linejoin:miter;stroke-miterlimit:10;stroke-dasharray:none;stroke-opacity:1"
       transform="matrix(1.3333333,0,0,-1.3333333,2116.5184,297.1252)"
       clip-path="url(#clipPath429)" /><path
       id="path430"
       d="M 0,0 1.795,3.109 3.59,0 Z"
       style="fill:#ffffff;fill-opacity:1;fill-rule:nonzero;stroke:none"
       transform="matrix(1.3333333,0,0,-1.3333333,2114.1252,297.82573)"
       clip-path="url(#clipPath431)" /><path
       id="path432"
       d="M 0,0 V -4.911"
       style="fill:#ffffff;stroke:#252728;stroke-width:0.9;stroke-linecap:butt;stroke-linejoin:miter;stroke-miterlimit:10;stroke-dasharray:none;stroke-opacity:1"
       transform="matrix(1.3333333,0,0,-1.3333333,2024.2515,297.1252)"
       clip-path="url(#clipPath433)" /><path
       id="path434"
       d="M 0,0 1.795,3.109 3.591,0 Z"
       style="fill:#ffffff;fill-opacity:1;fill-rule:nonzero;stroke:none"
       transform="matrix(1.3333333,0,0,-1.3333333,2021.8583,297.82573)"
       clip-path="url(#clipPath435)" /></g></svg>
